<svg width="7" height="11" viewBox="0 0 7 11" fill="none" xmlns="http://www.w3.org/2000/svg">
<path d="M6.02216 5.51788C6.02292 5.64949 5.99769 5.77995 5.94793 5.90179C5.89816 6.02362 5.82484 6.13444 5.73216 6.22788L1.73216 10.2279C1.63892 10.3211 1.52823 10.3951 1.40641 10.4455C1.28459 10.496 1.15402 10.522 1.02216 10.522C0.890298 10.522 0.75973 10.496 0.637908 10.4455C0.516086 10.3951 0.405396 10.3211 0.312158 10.2279C0.218919 10.1346 0.144958 10.024 0.0944977 9.90213C0.0440373 9.78031 0.0180664 9.64974 0.0180664 9.51788C0.0180664 9.38602 0.0440373 9.25545 0.0944976 9.13363C0.144958 9.01181 0.218919 8.90112 0.312158 8.80788L3.62216 5.51788L0.442157 2.21788C0.339868 2.12589 0.257659 2.01378 0.200673 1.88857C0.143687 1.76336 0.113149 1.62773 0.11097 1.49018C0.108791 1.35263 0.135016 1.2161 0.188007 1.08915C0.240998 0.962191 0.319615 0.847536 0.418939 0.75235C0.518264 0.657164 0.636159 0.583495 0.765254 0.535952C0.894348 0.488408 1.03186 0.468014 1.1692 0.476042C1.30654 0.48407 1.44074 0.520348 1.56341 0.582609C1.68609 0.64487 1.7946 0.731771 1.88216 0.837881L5.74216 4.83788C5.91847 5.02076 6.01858 5.26388 6.02216 5.51788Z" fill="#3D3D3D"/>
</svg>
