<svg width="185" height="205" viewBox="0 0 185 205" fill="none" xmlns="http://www.w3.org/2000/svg">
<path fill-rule="evenodd" clip-rule="evenodd" d="M138.509 23.1588L107.099 4.51565C98.1306 -0.807306 86.9712 -0.807294 78.0029 4.51565L46.5923 23.1588L14.7414 41.0397C5.64748 46.145 0.0678163 55.8093 0.193485 66.2375L0.633631 102.762L0.193485 139.286C0.067816 149.714 5.64751 159.378 14.7415 164.483L46.5924 182.364L78.0029 201.007C86.9712 206.33 98.1306 206.33 107.099 201.007L138.509 182.364L170.36 164.483C179.454 159.378 185.034 149.714 184.908 139.286L184.468 102.762L184.908 66.2375C185.034 55.8093 179.454 46.145 170.36 41.0397L138.509 23.1588ZM14.1393 128.403L14.4483 102.762L14.0062 66.0711C13.9414 60.6967 16.817 55.7161 21.5036 53.0851L53.4996 35.1227L85.0534 16.3946C89.6754 13.6513 95.4265 13.6513 100.048 16.3946L131.602 35.1227L163.598 53.0851C168.285 55.7161 171.16 60.6967 171.096 66.0711L170.654 102.762L170.963 128.403H145.338L145.338 128.371V120.664C152.87 120.425 158.685 118.622 158.685 110.822C158.685 102.342 151.81 82.3049 143.33 82.3049C134.849 82.3049 127.974 102.342 127.974 110.822C127.974 118.494 133.6 120.364 140.951 120.651V128.371L140.951 128.403H114.927V88.3465C114.927 85.0782 112.255 82.4287 108.96 82.4287H76.1429C72.8476 82.4287 70.1762 85.0782 70.1762 88.3465V138.291H66.2031C64.5999 138.291 63.3002 136.991 63.3002 135.388V120.762V101.744C63.3002 100.971 62.9922 100.231 62.4444 99.6857L47.0111 84.3355C45.8809 83.2114 44.0557 83.2089 42.9225 84.33L27.4013 99.6848C26.8502 100.23 26.54 100.973 26.54 101.748V125.5C26.54 127.103 25.2404 128.403 23.6371 128.403H14.1393ZM91.0597 33.6072C91.0597 32.7901 91.7275 32.1277 92.5514 32.1277C93.3752 32.1277 94.0431 32.7901 94.0431 33.6072V46.922H91.0597V33.6072ZM79.1263 52.84C79.1263 49.5717 81.7977 46.9223 85.093 46.9223H100.01C103.305 46.9223 105.977 49.5717 105.977 52.84V55.7984H108.96C112.255 55.7984 114.927 58.4479 114.927 61.7161C114.927 64.9844 112.255 67.6338 108.96 67.6338L108.96 70.5931C108.96 72.2272 107.624 73.5519 105.977 73.5519H100.01V82.4282H85.0928V73.5519H79.1265C77.4788 73.5519 76.1431 72.2272 76.1431 70.5931L76.1429 67.6338C72.8476 67.6338 70.1762 64.9844 70.1762 61.7161C70.1762 58.4479 72.8476 55.7984 76.1429 55.7984H79.1263V52.84Z" fill="url(#paint0_linear)"/>
<defs>
<linearGradient id="paint0_linear" x1="-43.0407" y1="0.523435" x2="116.786" y2="288.307" gradientUnits="userSpaceOnUse">
<stop stop-color="#00E6A2"/>
<stop offset="1" stop-color="#C2FFED"/>
</linearGradient>
</defs>
</svg>
