<svg width="150" height="41" viewBox="0 0 150 41" fill="none" xmlns="http://www.w3.org/2000/svg">
<path fill-rule="evenodd" clip-rule="evenodd" d="M27.0611 4.42848L20.9158 0.781054C19.1613 -0.260351 16.978 -0.260351 15.2234 0.781054L9.07807 4.42849L2.84663 7.92678C1.06745 8.9256 -0.0241797 10.8164 0.000406739 12.8566L0.0865186 20.0023L0.000406739 27.148C-0.0241797 29.1883 1.06745 31.079 2.84663 32.0778L9.07809 35.5761L15.2234 39.2236C16.978 40.265 19.1613 40.265 20.9158 39.2236L27.0611 35.5762L33.2926 32.0778C35.0718 31.079 36.1634 29.1883 36.1388 27.148L36.0527 20.0023L36.1388 12.8566C36.1634 10.8164 35.0718 8.9256 33.2926 7.92678L27.0611 4.42848ZM33.35 20.0023L33.4365 12.824C33.4491 11.7726 32.8865 10.7981 31.9696 10.2834L25.7098 6.76916L19.5365 3.1051C18.6322 2.56839 17.507 2.56839 16.6028 3.10509L10.4295 6.76916L4.16962 10.2834C3.25269 10.7981 2.69011 11.7726 2.70278 12.824L2.78928 20.0023L2.72883 25.0189H4.58703C4.90069 25.0189 5.15496 24.7646 5.15496 24.451V19.8041C5.15496 19.6525 5.21564 19.5071 5.32348 19.4004L8.3601 16.3963C8.58181 16.177 8.9389 16.1775 9.16002 16.3974L12.1795 19.4006C12.2866 19.5072 12.3469 19.6521 12.3469 19.8032V23.5241V26.3855C12.3469 26.6991 12.6012 26.9534 12.9148 26.9534H13.6921V17.1821C13.6921 16.5427 14.2148 16.0243 14.8595 16.0243H21.2799C21.9246 16.0243 22.4473 16.5427 22.4473 17.1821V25.0189H27.5389L27.5388 25.0127V23.5023C26.1007 23.4461 25 23.0803 25 21.5794C25 19.9202 26.345 16.0001 28.0042 16.0001C29.6634 16.0001 31.0084 19.9202 31.0084 21.5794C31.0084 23.1054 29.8707 23.4581 28.3972 23.5048V25.0127L28.3971 25.0189H33.4104L33.35 20.0023ZM18.0697 6.18322C17.9085 6.18322 17.7779 6.31281 17.7779 6.47266V9.07763H18.3615V6.47266C18.3615 6.31281 18.2309 6.18322 18.0697 6.18322ZM16.6105 9.07768C15.9658 9.07768 15.4432 9.59603 15.4432 10.2355V10.8143H14.8595C14.2148 10.8143 13.6921 11.3326 13.6921 11.972C13.6921 12.6114 14.2148 13.1298 14.8595 13.1298L14.8595 13.7087C14.8595 14.0285 15.1208 14.2876 15.4432 14.2876H16.6105V16.0242H19.5289V14.2876H20.6963C21.0186 14.2876 21.28 14.0285 21.28 13.7087L21.2799 13.1298C21.9246 13.1298 22.4473 12.6114 22.4473 11.972C22.4473 11.3326 21.9246 10.8143 21.2799 10.8143H20.6963V10.2355C20.6963 9.59603 20.1736 9.07768 19.5289 9.07768H16.6105ZM50.8291 28.184C52.2211 28.92 53.7731 29.288 55.4851 29.288C56.9411 29.288 58.2611 29.032 59.4451 28.52C60.6291 28.008 61.6211 27.264 62.4211 26.288L59.9251 23.984C58.7891 25.312 57.3811 25.976 55.7011 25.976C54.6611 25.976 53.7331 25.752 52.9171 25.304C52.1011 24.84 51.4611 24.2 50.9971 23.384C50.5491 22.568 50.3251 21.64 50.3251 20.6C50.3251 19.56 50.5491 18.632 50.9971 17.816C51.4611 17 52.1011 16.368 52.9171 15.92C53.7331 15.456 54.6611 15.224 55.7011 15.224C57.3811 15.224 58.7891 15.88 59.9251 17.192L62.4211 14.888C61.6211 13.928 60.6291 13.192 59.4451 12.68C58.2771 12.168 56.9651 11.912 55.5091 11.912C53.7811 11.912 52.2211 12.288 50.8291 13.04C49.4531 13.776 48.3651 14.808 47.5651 16.136C46.7811 17.448 46.3891 18.936 46.3891 20.6C46.3891 22.264 46.7811 23.76 47.5651 25.088C48.3651 26.4 49.4531 27.432 50.8291 28.184ZM68.5267 29V16.088H64.7827V29H68.5267ZM64.9747 13.688C65.4067 14.088 65.9667 14.288 66.6547 14.288C67.3427 14.288 67.9027 14.088 68.3347 13.688C68.7667 13.272 68.9827 12.752 68.9827 12.128C68.9827 11.552 68.7667 11.072 68.3347 10.688C67.9027 10.304 67.3427 10.112 66.6547 10.112C65.9667 10.112 65.4067 10.312 64.9747 10.712C64.5427 11.112 64.3267 11.608 64.3267 12.2C64.3267 12.792 64.5427 13.288 64.9747 13.688ZM78.9614 29C79.5054 28.856 79.9614 28.648 80.3294 28.376L79.3214 25.736C78.9054 26.056 78.4014 26.216 77.8094 26.216C77.2974 26.216 76.8974 26.072 76.6094 25.784C76.3374 25.48 76.2014 25.056 76.2014 24.512V19.256H79.4174V16.376H76.2014V13.232H72.4574V16.376H70.4654V19.256H72.4574V24.56C72.4574 26.08 72.8734 27.232 73.7054 28.016C74.5534 28.8 75.7454 29.192 77.2814 29.192C77.8734 29.192 78.4334 29.128 78.9614 29ZM89.1807 29.792L95.0127 16.088H91.4128L87.7647 24.848L84.1407 16.088H80.2767L85.8688 29.096L85.8207 29.216C85.5648 29.792 85.2767 30.2 84.9567 30.44C84.6367 30.696 84.2207 30.824 83.7087 30.824C83.3408 30.824 82.9648 30.752 82.5807 30.608C82.2128 30.464 81.8848 30.264 81.5967 30.008L80.2288 32.672C80.6448 33.04 81.1807 33.328 81.8368 33.536C82.4928 33.744 83.1568 33.848 83.8288 33.848C85.0608 33.848 86.1087 33.544 86.9727 32.936C87.8528 32.328 88.5888 31.28 89.1807 29.792ZM108.325 29H112.213V12.2H108.325V18.824H100.692V12.2H96.8045V29H100.692V22.112H108.325V29ZM119.667 29V16.088H115.923V29H119.667ZM116.115 13.688C116.547 14.088 117.107 14.288 117.795 14.288C118.483 14.288 119.043 14.088 119.475 13.688C119.907 13.272 120.123 12.752 120.123 12.128C120.123 11.552 119.907 11.072 119.475 10.688C119.043 10.304 118.483 10.112 117.795 10.112C117.107 10.112 116.547 10.312 116.115 10.712C115.683 11.112 115.467 11.608 115.467 12.2C115.467 12.792 115.683 13.288 116.115 13.688ZM130.51 29L135.958 16.088H132.358L128.662 24.872L125.086 16.088H121.222L126.646 29H130.51ZM149.71 23.6C149.758 22.976 149.782 22.64 149.782 22.592C149.782 21.248 149.486 20.072 148.894 19.064C148.318 18.04 147.518 17.256 146.494 16.712C145.47 16.168 144.326 15.896 143.062 15.896C141.766 15.896 140.59 16.184 139.534 16.76C138.494 17.32 137.67 18.112 137.062 19.136C136.47 20.144 136.174 21.28 136.174 22.544C136.174 23.824 136.478 24.968 137.086 25.976C137.694 26.984 138.558 27.776 139.678 28.352C140.798 28.912 142.086 29.192 143.542 29.192C145.878 29.192 147.654 28.496 148.87 27.104L146.878 24.944C146.43 25.376 145.942 25.696 145.414 25.904C144.902 26.096 144.31 26.192 143.638 26.192C142.662 26.192 141.846 25.96 141.19 25.496C140.534 25.032 140.118 24.4 139.942 23.6H149.71ZM140.95 19.448C141.526 18.968 142.238 18.728 143.086 18.728C143.918 18.728 144.622 18.976 145.198 19.472C145.774 19.952 146.126 20.6 146.254 21.416H139.894C140.022 20.584 140.374 19.928 140.95 19.448Z" fill="url(#paint0_linear)"/>
<defs>
<linearGradient id="paint0_linear" x1="-35.0554" y1="-4.61087e-07" x2="-25.3579" y2="72.3699" gradientUnits="userSpaceOnUse">
<stop stop-color="#00E6A2"/>
<stop offset="1" stop-color="#C2FFED"/>
</linearGradient>
</defs>
</svg>
